<?xml version="1.0" encoding="iso-8859-1"?>
<!-- Uploaded to: SVG Repo, www.svgrepo.com, Generator: SVG Repo Mixer Tools -->
<svg height="800px" width="800px" version="1.1" id="Layer_1" xmlns="http://www.w3.org/2000/svg" xmlns:xlink="http://www.w3.org/1999/xlink" 
	 viewBox="0 0 503.787 503.787" xml:space="preserve">
<g transform="translate(1 1)">
	<path style="fill:#FFE079;" d="M267.8,20.493c0,9.387-7.68,17.067-17.067,17.067c-9.387,0-17.067-7.68-17.067-17.067
		s7.68-17.067,17.067-17.067C260.12,3.427,267.8,11.107,267.8,20.493z M139.8,37.56c0,9.387-7.68,17.067-17.067,17.067
		s-17.067-7.68-17.067-17.067s7.68-17.067,17.067-17.067S139.8,28.173,139.8,37.56z M395.8,37.56c0,9.387-7.68,17.067-17.067,17.067
		c-9.387,0-17.067-7.68-17.067-17.067s7.68-17.067,17.067-17.067C388.12,20.493,395.8,28.173,395.8,37.56z"/>
	<path style="fill:#FFD0A1;" d="M395.8,242.36v17.067c0,9.387-7.68,17.067-17.067,17.067l-17.067,34.133l0,0
		c-17.067,17.067-61.44,25.6-61.44,25.6l0,0c-4.267-17.92-16.213-42.667-48.64-42.667s-45.227,24.747-48.64,42.667l0,0
		c0,0-43.52-8.533-61.44-24.747c0,0,0,0,0-0.853l-17.92-34.133c-9.387,0-17.067-7.68-17.067-17.067V242.36
		c0-10.24,6.827-17.067,17.067-17.067v-51.2h256v51.2C388.973,225.293,395.8,232.12,395.8,242.36"/>
	<polygon style="fill:#ECF4F7;" points="378.733,54.627 378.733,174.093 122.733,174.093 122.733,54.627 199.533,105.827 
		250.733,37.56 301.933,105.827 	"/>
	<path style="fill:#EED2FF;" d="M294.253,498.36h-87.04c17.92-25.6,43.52-34.133,43.52-34.133S276.333,472.76,294.253,498.36"/>
	<path style="fill:#C49AE9;" d="M353.133,413.027c42.667,0,76.8,8.533,93.867,17.067c-68.267,59.733-152.747,68.267-152.747,68.267
		c-17.92-25.6-43.52-34.133-43.52-34.133s-25.6,8.533-43.52,34.133c0,0-84.48-8.533-152.747-68.267
		c17.067-8.533,51.2-17.067,93.867-17.067h8.533c17.067,12.8,29.867,34.133,93.867,34.133s81.067-21.333,96.427-34.133H353.133z"/>
	<path style="fill:#7EE1E6;" d="M498.2,498.36H294.253c0,0,84.48-8.533,152.747-68.267c12.8,11.093,21.333,21.333,21.333,21.333
		S490.52,474.467,498.2,498.36z M207.213,498.36H3.267c7.68-23.893,29.867-46.933,29.867-46.933s8.533-10.24,21.333-21.333
		C122.733,489.827,207.213,498.36,207.213,498.36z"/>
	<path style="fill:#ECF4F7;" d="M202.093,336.227c4.267-17.92,16.213-42.667,48.64-42.667c33.28,0,45.227,24.747,48.64,42.667l0,0
		c0,0,44.373-8.533,61.44-25.6c-5.12,51.2-22.187,84.48-48.64,102.4c-17.067,11.947-38.4,17.067-62.293,17.067
		c-22.187,0-42.667-5.973-58.88-17.92c-27.307-19.627-46.08-53.76-51.2-101.547C157.72,327.693,201.24,336.227,202.093,336.227
		L202.093,336.227z"/>
</g>
<path style="fill:#51565F;" d="M4.267,503.627c-0.853,0-0.853,0-1.707,0c-1.707-0.853-2.56-3.413-2.56-5.12
	c8.533-24.747,29.867-47.787,30.72-48.64c1.707-1.707,4.267-1.707,5.973,0c1.707,1.707,2.56,3.413,0.853,5.973L7.68,502.773
	C6.827,502.773,5.973,503.627,4.267,503.627z M499.2,503.627c-1.707,0-2.56-0.853-3.413-1.707l-29.867-46.933
	c-0.853-1.707-0.853-4.267,0.853-5.973c1.707-1.707,4.267-0.853,5.973,0c0.853,0.853,23.04,23.893,30.72,48.64
	c0.853,1.707,0,4.267-2.56,5.12C500.053,503.627,500.053,503.627,499.2,503.627z M295.253,503.627c-1.707,0-2.56-0.853-3.413-1.707
	c-14.507-20.48-34.133-29.867-40.107-32.427c-5.12,2.56-25.6,11.093-40.107,32.427c-0.853,1.707-2.56,1.707-4.267,1.707
	c-3.413,0-87.04-9.387-155.307-69.12c-0.853-0.853-1.707-2.56-1.707-3.413c0-1.707,0.853-2.56,2.56-3.413
	c17.067-8.533,51.2-17.92,95.573-17.92c2.56,0,4.267,1.707,4.267,4.267c0,2.56-1.707,4.267-4.267,4.267
	c-38.4,0-69.12,6.827-86.187,13.653c58.88,48.64,128.853,60.587,143.36,62.293c17.92-24.747,42.667-33.28,44.373-33.28
	c0.853,0,1.707,0,2.56,0c0.853,0,25.6,8.533,44.373,33.28c13.653-1.707,83.627-13.653,143.36-62.293
	c-17.067-6.827-47.787-13.653-86.187-13.653c-2.56,0-4.267-1.707-4.267-4.267c0-2.56,1.707-4.267,4.267-4.267
	c44.373,0,78.507,9.387,95.573,17.92c0.853,0.853,2.56,1.707,2.56,3.413s0,2.56-1.707,3.413
	C382.293,494.24,298.667,503.627,295.253,503.627L295.253,503.627z M251.733,435.36c-63.147,0-105.813-45.227-114.347-121.173
	c-0.853-0.853-0.853-1.707-0.853-2.56l-15.36-29.867c-10.24-1.707-18.773-10.24-18.773-21.333V243.36
	c0-11.093,6.827-18.773,17.067-21.333v-12.8c0-2.56,1.707-4.267,4.267-4.267c2.56,0,4.267,1.707,4.267,4.267v17.067
	c0,2.56-1.707,4.267-4.267,4.267c-7.68,0-12.8,5.12-12.8,12.8v17.067c0,6.827,5.973,12.8,12.8,12.8c1.707,0,3.413,0.853,3.413,2.56
	l17.92,34.133l0,0c13.653,12.8,44.373,19.627,54.613,22.187c5.12-18.773,18.773-41.813,52.053-41.813
	c33.28,0,46.933,23.04,52.053,41.813c10.24-2.56,40.96-10.24,54.613-23.04l17.067-34.133c0.853-1.707,2.56-2.56,3.413-2.56
	c6.827,0,12.8-5.973,12.8-12.8v-17.067c0-7.68-5.12-12.8-12.8-12.8c-2.56,0-4.267-1.707-4.267-4.267v-17.067
	c0-2.56,1.707-4.267,4.267-4.267s4.267,1.707,4.267,4.267v12.8c10.24,1.707,17.067,9.387,17.067,21.333v17.067
	c0,11.093-8.533,19.627-18.773,21.333l-15.36,30.72v0.853C355.84,414.027,298.667,435.36,251.733,435.36z M146.773,321.867
	c10.24,65.707,48.64,104.96,104.96,104.96c60.587,0,95.573-35.84,104.96-104.96c-16.213,10.24-41.813,17.067-51.2,18.773
	c1.707,7.68,1.707,13.653,1.707,13.653c0,2.56-1.707,4.267-4.267,4.267l0,0c-2.56,0-4.267-1.707-4.267-4.267
	c0-0.853,0-7.68-1.707-15.36c0,0,0,0,0-0.853l0,0c-4.267-16.213-14.507-39.253-45.227-39.253s-40.96,23.04-45.227,39.253l0,0
	c0,0,0,0,0,0.853c-1.707,8.533-1.707,15.36-1.707,15.36c0,2.56-1.707,4.267-4.267,4.267l0,0c-2.56,0-4.267-1.707-4.267-4.267
	c0,0,0-5.973,1.707-13.653C187.733,338.08,163.84,332.107,146.773,321.867z M260.267,332.96H243.2c-2.56,0-4.267-1.707-4.267-4.267
	s1.707-4.267,4.267-4.267h17.067c2.56,0,4.267,1.707,4.267,4.267S262.827,332.96,260.267,332.96z M302.933,239.093
	c-2.56,0-4.267-1.707-4.267-4.267v-4.267h-12.8c-2.56,0-4.267-1.707-4.267-4.267s1.707-4.267,4.267-4.267H320
	c2.56,0,4.267,1.707,4.267,4.267s-1.707,4.267-4.267,4.267h-12.8v4.267C307.2,237.387,305.493,239.093,302.933,239.093z
	 M200.533,239.093c-2.56,0-4.267-1.707-4.267-4.267v-4.267h-12.8c-2.56,0-4.267-1.707-4.267-4.267s1.707-4.267,4.267-4.267H217.6
	c2.56,0,4.267,1.707,4.267,4.267s-1.707,4.267-4.267,4.267h-12.8v4.267C204.8,237.387,203.093,239.093,200.533,239.093z
	 M379.733,179.36h-256c-2.56,0-4.267-1.707-4.267-4.267V59.04C110.08,57.333,102.4,48.8,102.4,38.56
	c0-11.947,9.387-21.333,21.333-21.333c11.947,0,21.333,9.387,21.333,21.333c0,7.68-4.267,15.36-11.093,18.773l65.707,43.52
	l44.373-59.733c-7.68-3.413-13.653-11.093-13.653-19.627c0-11.947,9.387-21.333,21.333-21.333c11.947,0,21.333,9.387,21.333,21.333
	c0,9.387-5.973,17.067-13.653,19.627l44.373,59.733l65.707-43.52C362.667,53.92,358.4,46.24,358.4,38.56
	c0-11.947,9.387-21.333,21.333-21.333c11.947,0,21.333,9.387,21.333,21.333c0,10.24-7.68,18.773-17.067,20.48v116.053
	C384,177.653,382.293,179.36,379.733,179.36z M128,170.827h247.467V63.307l-69.973,46.933c-1.707,0.853-4.267,0.853-5.973-0.853
	l-47.787-64l-47.787,64c-1.707,1.707-4.267,2.56-5.973,0.853L128,63.307V170.827z M123.733,25.76c-6.827,0-12.8,5.973-12.8,12.8
	s5.973,12.8,12.8,12.8l0,0c6.827,0,12.8-5.973,12.8-12.8S130.56,25.76,123.733,25.76z M379.733,51.36L379.733,51.36
	c6.827,0,12.8-5.973,12.8-12.8s-5.973-12.8-12.8-12.8c-6.827,0-12.8,5.973-12.8,12.8S372.907,51.36,379.733,51.36L379.733,51.36z
	 M251.733,8.693c-6.827,0-12.8,5.973-12.8,12.8s5.973,12.8,12.8,12.8c6.827,0,12.8-5.973,12.8-12.8S258.56,8.693,251.733,8.693z"/>
</svg>